<svg width="24" height="24" viewBox="0 0 24 24" fill="none" xmlns="http://www.w3.org/2000/svg">
<path d="M8 11C10.7614 11 13 8.76142 13 6C13 3.23858 10.7614 1 8 1C5.23858 1 3 3.23858 3 6C3 8.76142 5.23858 11 8 11Z" fill="white"/>
<path d="M0 21C0 16.5817 3.58172 13 8 13C12.4183 13 16 16.5817 16 21C16 22.1046 15.1046 23 14 23H2C0.895431 23 0 22.1046 0 21Z" fill="white"/>
<path d="M17 13C18.6569 13 20 11.6569 20 10C20 8.34315 18.6569 7 17 7C15.3431 7 14 8.34315 14 10C14 11.6569 15.3431 13 17 13Z" fill="white"/>
<path d="M19 10V2L22 3" stroke="white" stroke-width="2" stroke-linecap="round" stroke-linejoin="round"/>
</svg>
