<svg width="24" height="24" viewBox="0 0 24 24" fill="none" xmlns="http://www.w3.org/2000/svg">
<path fill-rule="evenodd" clip-rule="evenodd" d="M2 8C0.895431 8 0 8.89543 0 10V22C0 23.1046 0.89543 24 2 24H22C23.1046 24 24 23.1046 24 22V10C24 8.89543 23.1046 8 22 8H2ZM9.5 13.5002C9.5 12.7323 10.3295 12.251 10.9961 12.6319L14.9806 14.9087C15.6524 15.2926 15.6524 16.2613 14.9806 16.6452L10.9961 18.9221C10.3295 19.303 9.5 18.8216 9.5 18.0538V13.5002Z" fill="white"/>
<rect x="1" y="4" width="22" height="2" rx="1" fill="white"/>
<rect x="2" width="20" height="2" rx="1" fill="white"/>
</svg>
