<svg width="24" height="24" viewBox="0 0 24 24" fill="none" xmlns="http://www.w3.org/2000/svg">
<path d="M11.4188 3.12946C12.0806 2.6567 13 3.12982 13 3.94319V20.0568C13 20.8702 12.0806 21.3433 11.4188 20.8705L6 17H3C1.89543 17 1 16.1046 1 15V9C1 7.89543 1.89543 7 3 7H6L11.4188 3.12946Z" fill="white"/>
<path d="M15.9938 16.9053C17.2347 15.6423 18 13.9105 18 12C18 10.0815 17.2282 8.34323 15.9781 7.0788" stroke="white" stroke-width="2" stroke-linecap="round" stroke-linejoin="round"/>
<path d="M18.7782 4.2218C20.7688 6.21241 22 8.96241 22 12C22 15.0375 20.7688 17.7875 18.7782 19.7782" stroke="white" stroke-width="2" stroke-linecap="round" stroke-linejoin="round"/>
</svg>
